<svg xmlns="http://www.w3.org/2000/svg" xmlns:xlink="http://www.w3.org/1999/xlink" width="179" height="171" viewBox="0 0 179 171"><defs><style>.a{fill:#280851;}.b{fill:url(#a);}.c{fill:url(#b);}</style><linearGradient id="a" x1="0.5" x2="0.5" y2="1" gradientUnits="objectBoundingBox"><stop offset="0" stop-color="#1c0c3d"/><stop offset="0.57" stop-color="#5133a4"/><stop offset="1" stop-color="#7950f2"/></linearGradient><linearGradient id="b" x1="0.5" x2="0.5" y2="1" gradientUnits="objectBoundingBox"><stop offset="0" stop-color="#f3eef5"/><stop offset="1" stop-color="#aba7aa"/></linearGradient></defs><g transform="translate(-837 -1729)"><g transform="translate(153 -158)"><rect class="a" width="12" height="7" transform="translate(779 1887)"/><rect class="a" width="16" height="7" transform="translate(778 1898)"/><g transform="translate(740 1887)"><rect class="a" width="21" height="70" transform="translate(23)"/><ellipse class="b" cx="33.5" cy="31" rx="33.5" ry="31" transform="translate(0 68)"/><ellipse class="c" cx="15" cy="14.5" rx="15" ry="14.5" transform="translate(19 83)"/></g></g><g transform="translate(229 -92.631)"><rect class="a" width="9" height="5" transform="translate(767 1886.631)"/><rect class="a" width="11" height="5" transform="translate(767 1893.631)"/><g transform="translate(740 1887)"><rect class="a" width="15" height="44" transform="translate(16 -0.369)"/><ellipse class="b" cx="23.5" cy="19.5" rx="23.5" ry="19.5" transform="translate(0 42.631)"/><ellipse class="c" cx="10.5" cy="9.5" rx="10.5" ry="9.5" transform="translate(13 51.631)"/></g></g><g transform="translate(97 -68.631)"><rect class="a" width="9" height="5" transform="translate(767 1886.631)"/><rect class="a" width="11" height="5" transform="translate(767 1893.631)"/><g transform="translate(740 1887)"><rect class="a" width="15" height="44" transform="translate(16 -0.369)"/><ellipse class="b" cx="23.5" cy="19.5" rx="23.5" ry="19.5" transform="translate(0 42.631)"/><ellipse class="c" cx="10.5" cy="9.5" rx="10.5" ry="9.5" transform="translate(13 51.631)"/></g></g></g></svg>