<svg xmlns="http://www.w3.org/2000/svg" xmlns:xlink="http://www.w3.org/1999/xlink" width="580" height="452.481" viewBox="0 0 580 452.481"><defs><style>.a{fill:url(#a);}.b{fill:url(#d);}.c{fill:url(#g);}.d{filter:url(#h);}.e{filter:url(#e);}.f{filter:url(#b);}</style><linearGradient id="a" x1="0.5" x2="0.894" y2="0.932" gradientUnits="objectBoundingBox"><stop offset="0" stop-color="#fcc419"/><stop offset="1" stop-color="#fede7f"/></linearGradient><filter id="b" x="0.001" y="0" width="577.999" height="452.481" filterUnits="userSpaceOnUse"><feOffset dy="2" input="SourceAlpha"/><feGaussianBlur stdDeviation="10" result="c"/><feFlood flood-color="#fcc419"/><feComposite operator="in" in2="c"/><feComposite in="SourceGraphic"/></filter><linearGradient id="d" x1="0.5" x2="1" y2="1" gradientUnits="objectBoundingBox"><stop offset="0" stop-color="#8fc51f"/><stop offset="1" stop-color="#ddf8a8"/></linearGradient><filter id="e" x="0" y="71.801" width="580" height="376.68" filterUnits="userSpaceOnUse"><feOffset dy="-2" input="SourceAlpha"/><feGaussianBlur stdDeviation="10" result="f"/><feFlood flood-color="#aaf511" flood-opacity="0.431"/><feComposite operator="in" in2="f"/><feComposite in="SourceGraphic"/></filter><linearGradient id="g" x1="0.5" x2="0.5" y2="1" gradientUnits="objectBoundingBox"><stop offset="0" stop-color="#f96684"/><stop offset="1" stop-color="#ee0938"/></linearGradient><filter id="h" x="0.001" y="149.524" width="577.999" height="290.957" filterUnits="userSpaceOnUse"><feOffset dy="-10" input="SourceAlpha"/><feGaussianBlur stdDeviation="10" result="i"/><feFlood flood-color="#ee0938" flood-opacity="0.278"/><feComposite operator="in" in2="i"/><feComposite in="SourceGraphic"/></filter></defs><g transform="translate(-618.999 -1876.047)"><g class="f" transform="matrix(1, 0, 0, 1, 619, 1876.05)"><path class="a" d="M0-62.914s25.89,89.829,113.367,68.7S250.835-176.579,349.908-147.443,518-62.914,518-62.914V241.528H0Z" transform="translate(30 178.95)"/></g><g class="e" transform="matrix(1, 0, 0, 1, 619, 1876.05)"><path class="b" d="M0-228.181s-.914,90.068,78.461,74.47,171.275-81.64,239.04-136.864S520-129.757,520-129.757V17.073H0Z" transform="translate(30 403.41)"/></g><g class="d" transform="matrix(1, 0, 0, 1, 619, 1876.05)"><path class="c" d="M0-33.842S40.274,29.7,94.188,13.23,140.537-91.5,215.655-99.741s103.418,63.546,179,80.021S518-33.842,518-33.842v164.4H0Z" transform="translate(30 289.92)"/></g></g></svg>